  0
SECTION
  2
HEADER
  9
$ACADVER
  1
AC1014
  9
$HANDSEED
  5
FFFF
  9
$MEASUREMENT
 70
     1
  0
ENDSEC
  0
SECTION
  2
TABLES
  0
TABLE
  2
VPORT
  5
8
330
0
100
AcDbSymbolTable
 70
     4
  0
VPORT
  5
2E
330
8
100
AcDbSymbolTableRecord
100
AcDbViewportTableRecord
  2
*ACTIVE
 70
     0
 10
0.0
 20
0.0
 11
1.0
 21
1.0
 12
210.0
 22
148.5
 13
0.0
 23
0.0
 14
10.0
 24
10.0
 15
10.0
 25
10.0
 16
0.0
 26
0.0
 36
1.0
 17
0.0
 27
0.0
 37
0.0
 40
341.0
 41
1.24
 42
50.0
 43
0.0
 44
0.0
 50
0.0
 51
0.0
 71
     0
 72
   100
 73
     1
 74
     3
 75
     0
 76
     0
 77
     0
 78
     0
  0
ENDTAB
  0
TABLE
  2
LTYPE
  5
5
330
0
100
AcDbSymbolTable
 70
     1
  0
LTYPE
  5
14
330
5
100
AcDbSymbolTableRecord
100
AcDbLinetypeTableRecord
  2
BYBLOCK
 70
     0
  3

 72
    65
 73
     0
 40
0.0
  0
LTYPE
  5
15
330
5
100
AcDbSymbolTableRecord
100
AcDbLinetypeTableRecord
  2
BYLAYER
 70
     0
  3

 72
    65
 73
     0
 40
0.0
  0
LTYPE
  5
16
330
5
100
AcDbSymbolTableRecord
100
AcDbLinetypeTableRecord
  2
CONTINUOUS
 70
     0
  3
Solid line
 72
    65
 73
     0
 40
0.0
  0
ENDTAB
  0
TABLE
  2
LAYER
  5
2
100
AcDbSymbolTable
 70
2
  0
LAYER
  5
50
100
AcDbSymbolTableRecord
100
AcDbLayerTableRecord
  2
0
 70
0
  6
CONTINUOUS
  0
LAYER
  5
51
100
AcDbSymbolTableRecord
100
AcDbLayerTableRecord
  2
Layer_1
 70
0
  6
CONTINUOUS
  0
ENDTAB
  0
TABLE
  2
STYLE
  5
3
330
0
100
AcDbSymbolTable
 70
     1
  0
STYLE
  5
11
330
3
100
AcDbSymbolTableRecord
100
AcDbTextStyleTableRecord
  2
STANDARD
 70
     0
 40
0.0
 41
1.0
 50
0.0
 71
     0
 42
2.5
  3
txt
  4

  0
ENDTAB
  0
TABLE
  2
VIEW
  5
6
330
0
100
AcDbSymbolTable
 70
     0
  0
ENDTAB
  0
TABLE
  2
UCS
  5
7
330
0
100
AcDbSymbolTable
 70
     0
  0
ENDTAB
  0
TABLE
  2
APPID
  5
9
330
0
100
AcDbSymbolTable
 70
     2
  0
APPID
  5
12
330
9
100
AcDbSymbolTableRecord
100
AcDbRegAppTableRecord
  2
ACAD
 70
     0
  0
ENDTAB
  0
TABLE
  2
DIMSTYLE
  5
A
330
0
100
AcDbSymbolTable
 70
     1
  0
DIMSTYLE
105
27
330
A
100
AcDbSymbolTableRecord
100
AcDbDimStyleTableRecord
  2
ISO-25
 70
     0
  3

  4

  5

  6

  7

 40
1.0
 41
2.5
 42
0.625
 43
3.75
 44
1.25
 45
0.0
 46
0.0
 47
0.0
 48
0.0
140
2.5
141
2.5
142
0.0
143
0.03937007874016
144
1.0
145
0.0
146
1.0
147
0.625
 71
     0
 72
     0
 73
     0
 74
     0
 75
     0
 76
     0
 77
     1
 78
     8
170
     0
171
     3
172
     1
173
     0
174
     0
175
     0
176
     0
177
     0
178
     0
270
     2
271
     2
272
     2
273
     2
274
     3
340
11
275
     0
280
     0
281
     0
282
     0
283
     0
284
     8
285
     0
286
     0
287
     3
288
     0
  0
ENDTAB
  0
TABLE
  2
BLOCK_RECORD
  5
1
330
0
100
AcDbSymbolTable
 70
     1
  0
BLOCK_RECORD
  5
1F
330
1
100
AcDbSymbolTableRecord
100
AcDbBlockTableRecord
  2
*MODEL_SPACE
  0
BLOCK_RECORD
  5
1B
330
1
100
AcDbSymbolTableRecord
100
AcDbBlockTableRecord
  2
*PAPER_SPACE
  0
ENDTAB
  0
ENDSEC
  0
SECTION
  2
BLOCKS
  0
BLOCK
  5
20
330
1F
100
AcDbEntity
  8
0
100
AcDbBlockBegin
  2
*MODEL_SPACE
 70
     0
 10
0.0
 20
0.0
 30
0.0
  3
*MODEL_SPACE
  1

  0
ENDBLK
  5
21
330
1F
100
AcDbEntity
  8
0
100
AcDbBlockEnd
  0
BLOCK
  5
1C
330
1B
100
AcDbEntity
 67
     1
  8
0
100
AcDbBlockBegin
  2
*PAPER_SPACE
  1

  0
ENDBLK
  5
1D
330
1B
100
AcDbEntity
 67
     1
  8
0
100
AcDbBlockEnd
  0
ENDSEC
  0
SECTION
  2
ENTITIES
  0
SPLINE
  5
100
100
AcDbEntity
  8
Layer_1
 62
7
100
AcDbSpline
 70
0
 71
3
 72
25
 73
21
 74
19
 40
0.000000
 40
0.000000
 40
0.000000
 40
0.000000
 40
1.453468
 40
2.863827
 40
4.317295
 40
5.044989
 40
5.766662
 40
6.494356
 40
7.222051
 40
7.943723
 40
8.671417
 40
9.399112
 40
10.120784
 40
10.848479
 40
11.576173
 40
12.297846
 40
13.025540
 40
14.479008
 40
15.889367
 40
17.342835
 40
17.342835
 40
17.342835
 40
17.342835
 10
92.966608
 20
212.557350
 30
0.0
 10
92.890116
 20
212.067342
 30
0.0
 10
92.739402
 20
211.101860
 30
0.0
 10
91.633981
 20
210.038387
 30
0.0
 10
90.428875
 20
209.712295
 30
0.0
 10
89.459089
 20
209.841665
 30
0.0
 10
88.780924
 20
210.122268
 30
0.0
 10
88.198410
 20
210.569007
 30
0.0
 10
87.751730
 20
211.151534
 30
0.0
 10
87.470876
 20
211.829585
 30
0.0
 10
87.374797
 20
212.557350
 30
0.0
 10
87.470876
 20
213.285115
 30
0.0
 10
87.751730
 20
213.963166
 30
0.0
 10
88.198410
 20
214.545693
 30
0.0
 10
88.780924
 20
214.992432
 30
0.0
 10
89.459089
 20
215.273035
 30
0.0
 10
90.428875
 20
215.402405
 30
0.0
 10
91.633981
 20
215.076313
 30
0.0
 10
92.739402
 20
214.012840
 30
0.0
 10
92.890116
 20
213.047358
 30
0.0
 10
92.966608
 20
212.557350
 30
0.0
 11
92.966608
 21
212.557350
 31
0.0
 11
92.587077
 21
211.154308
 31
0.0
 11
91.589803
 21
210.157034
 31
0.0
 11
90.186761
 21
209.777503
 31
0.0
 11
89.465326
 21
209.872742
 31
0.0
 11
88.798587
 21
210.148914
 31
0.0
 11
88.221111
 21
210.591701
 31
0.0
 11
87.778323
 21
211.169177
 31
0.0
 11
87.502151
 21
211.835915
 31
0.0
 11
87.406912
 21
212.557350
 31
0.0
 11
87.502151
 21
213.278785
 31
0.0
 11
87.778323
 21
213.945524
 31
0.0
 11
88.221111
 21
214.522999
 31
0.0
 11
88.798587
 21
214.965786
 31
0.0
 11
89.465326
 21
215.241958
 31
0.0
 11
90.186761
 21
215.337197
 31
0.0
 11
91.589803
 21
214.957666
 31
0.0
 11
92.587077
 21
213.960392
 31
0.0
 11
92.966608
 21
212.557350
 31
0.0
  0
LWPOLYLINE
  5
101
100
AcDbEntity
  8
Layer_1
 62
7
100
AcDbPolyline
 90
2
 70
1
 10
92.966608
 20
212.557350
 30
0.0
 10
92.966608
 20
212.557350
 30
0.0
  0
SPLINE
  5
102
100
AcDbEntity
  8
Layer_1
 62
7
100
AcDbSpline
 70
0
 71
3
 72
28
 73
24
 74
22
 40
0.000000
 40
0.000000
 40
0.000000
 40
0.000000
 40
0.727695
 40
1.449368
 40
2.177063
 40
2.904758
 40
3.626431
 40
4.354125
 40
5.081820
 40
5.803492
 40
6.531187
 40
7.258881
 40
7.980554
 40
8.708248
 40
10.161716
 40
11.572075
 40
13.025543
 40
13.753237
 40
14.474910
 40
15.202604
 40
15.930299
 40
16.651971
 40
17.379665
 40
17.379665
 40
17.379665
 40
17.379665
 10
119.770003
 20
166.132511
 30
0.0
 10
119.751472
 20
165.889251
 30
0.0
 10
119.714563
 20
165.404744
 30
0.0
 10
119.422887
 20
164.726698
 30
0.0
 10
118.979131
 20
164.144152
 30
0.0
 10
118.395802
 20
163.697481
 30
0.0
 10
117.717965
 20
163.416625
 30
0.0
 10
116.990141
 20
163.320547
 30
0.0
 10
116.262391
 20
163.416627
 30
0.0
 10
115.584337
 20
163.697476
 30
0.0
 10
115.001811
 20
164.144176
 30
0.0
 10
114.555069
 20
164.726614
 30
0.0
 10
114.274477
 20
165.405063
 30
0.0
 10
114.145055
 20
166.373427
 30
0.0
 10
114.471534
 20
167.589239
 30
0.0
 10
115.533434
 20
168.651128
 30
0.0
 10
116.749213
 20
168.977610
 30
0.0
 10
117.717645
 20
168.848188
 30
0.0
 10
118.395888
 20
168.567595
 30
0.0
 10
118.979107
 20
168.120854
 30
0.0
 10
119.422892
 20
167.538327
 30
0.0
 10
119.714561
 20
166.860277
 30
0.0
 10
119.751471
 20
166.375771
 30
0.0
 10
119.770003
 20
166.132511
 30
0.0
 11
119.770003
 21
166.132511
 31
0.0
 11
119.674764
 21
165.411076
 31
0.0
 11
119.398592
 21
164.744337
 31
0.0
 11
118.955804
 21
164.166860
 31
0.0
 11
118.378328
 21
163.724073
 31
0.0
 11
117.711589
 21
163.447901
 31
0.0
 11
116.990154
 21
163.352662
 31
0.0
 11
116.268718
 21
163.447901
 31
0.0
 11
115.601980
 21
163.724074
 31
0.0
 11
115.024504
 21
164.166861
 31
0.0
 11
114.581717
 21
164.744337
 31
0.0
 11
114.305546
 21
165.411076
 31
0.0
 11
114.210307
 21
166.132511
 31
0.0
 11
114.589838
 21
167.535553
 31
0.0
 11
115.587112
 21
168.532827
 31
0.0
 11
116.990154
 21
168.912358
 31
0.0
 11
117.711589
 21
168.817119
 31
0.0
 11
118.378327
 21
168.540948
 31
0.0
 11
118.955803
 21
168.098160
 31
0.0
 11
119.398591
 21
167.520685
 31
0.0
 11
119.674764
 21
166.853946
 31
0.0
 11
119.770003
 21
166.132511
 31
0.0
  0
LWPOLYLINE
  5
103
100
AcDbEntity
  8
Layer_1
 62
7
100
AcDbPolyline
 90
2
 70
1
 10
119.770003
 20
166.132511
 30
0.0
 10
119.770003
 20
166.132511
 30
0.0
  0
SPLINE
  5
104
100
AcDbEntity
  8
Layer_1
 62
7
100
AcDbSpline
 70
0
 71
3
 72
28
 73
24
 74
22
 40
0.000000
 40
0.000000
 40
0.000000
 40
0.000000
 40
0.727694
 40
1.449367
 40
2.177061
 40
2.904756
 40
3.626428
 40
4.354123
 40
5.081818
 40
5.803490
 40
6.531185
 40
7.258880
 40
7.980553
 40
8.708248
 40
9.435942
 40
10.157615
 40
10.885309
 40
11.613004
 40
12.334676
 40
13.062371
 40
14.515839
 40
15.926197
 40
17.379665
 40
17.379665
 40
17.379665
 40
17.379665
 10
66.163210
 20
166.132511
 30
0.0
 10
66.144679
 20
165.889252
 30
0.0
 10
66.107770
 20
165.404745
 30
0.0
 10
65.816094
 20
164.726699
 30
0.0
 10
65.372339
 20
164.144153
 30
0.0
 10
64.789011
 20
163.697482
 30
0.0
 10
64.111174
 20
163.416626
 30
0.0
 10
63.383351
 20
163.320547
 30
0.0
 10
62.655599
 20
163.416625
 30
0.0
 10
61.977549
 20
163.697481
 30
0.0
 10
61.395004
 20
164.144152
 30
0.0
 10
60.948332
 20
164.726698
 30
0.0
 10
60.667477
 20
165.404744
 30
0.0
 10
60.571399
 20
166.132511
 30
0.0
 10
60.667478
 20
166.860277
 30
0.0
 10
60.948332
 20
167.538327
 30
0.0
 10
61.395012
 20
168.120855
 30
0.0
 10
61.977526
 20
168.567593
 30
0.0
 10
62.655691
 20
168.848196
 30
0.0
 10
63.625477
 20
168.977566
 30
0.0
 10
64.830583
 20
168.651474
 30
0.0
 10
65.936004
 20
167.588001
 30
0.0
 10
66.086718
 20
166.622519
 30
0.0
 10
66.163210
 20
166.132511
 30
0.0
 11
66.163210
 21
166.132511
 31
0.0
 11
66.067971
 21
165.411076
 31
0.0
 11
65.791800
 21
164.744337
 31
0.0
 11
65.349012
 21
164.166861
 31
0.0
 11
64.771537
 21
163.724074
 31
0.0
 11
64.104798
 21
163.447901
 31
0.0
 11
63.383363
 21
163.352662
 31
0.0
 11
62.661928
 21
163.447901
 31
0.0
 11
61.995189
 21
163.724073
 31
0.0
 11
61.417712
 21
164.166860
 31
0.0
 11
60.974925
 21
164.744337
 31
0.0
 11
60.698752
 21
165.411076
 31
0.0
 11
60.603514
 21
166.132511
 31
0.0
 11
60.698753
 21
166.853946
 31
0.0
 11
60.974925
 21
167.520685
 31
0.0
 11
61.417713
 21
168.098160
 31
0.0
 11
61.995189
 21
168.540948
 31
0.0
 11
62.661928
 21
168.817119
 31
0.0
 11
63.383363
 21
168.912358
 31
0.0
 11
64.786405
 21
168.532827
 31
0.0
 11
65.783679
 21
167.535553
 31
0.0
 11
66.163210
 21
166.132511
 31
0.0
  0
LWPOLYLINE
  5
105
100
AcDbEntity
  8
Layer_1
 62
7
100
AcDbPolyline
 90
2
 70
1
 10
66.163210
 20
166.132511
 30
0.0
 10
66.163210
 20
166.132511
 30
0.0
  0
SPLINE
  5
106
100
AcDbEntity
  8
Layer_1
 62
7
100
AcDbSpline
 70
0
 71
3
 72
25
 73
21
 74
19
 40
0.000000
 40
0.000000
 40
0.000000
 40
0.000000
 40
5.934295
 40
11.692581
 40
17.626876
 40
20.597944
 40
23.544424
 40
26.515492
 40
29.486559
 40
32.433039
 40
35.404107
 40
38.375175
 40
41.321656
 40
44.292723
 40
47.263791
 40
50.210272
 40
53.181340
 40
59.115636
 40
64.873923
 40
70.808219
 40
70.808219
 40
70.808219
 40
70.808219
 10
101.536463
 20
181.689294
 30
0.0
 10
101.224160
 20
179.688665
 30
0.0
 10
100.608815
 20
175.746743
 30
0.0
 10
96.095544
 20
171.404741
 30
0.0
 10
91.175277
 20
170.073356
 30
0.0
 10
87.215784
 20
170.601557
 30
0.0
 10
84.446938
 20
171.747218
 30
0.0
 10
82.068621
 20
173.571186
 30
0.0
 10
80.244895
 20
175.949560
 30
0.0
 10
79.098212
 20
178.717937
 30
0.0
 10
78.705936
 20
181.689295
 30
0.0
 10
79.098212
 20
184.660652
 30
0.0
 10
80.244894
 20
187.429030
 30
0.0
 10
82.068620
 20
189.807405
 30
0.0
 10
84.446937
 20
191.631373
 30
0.0
 10
87.215784
 20
192.777035
 30
0.0
 10
91.175277
 20
193.305236
 30
0.0
 10
96.095545
 20
191.973850
 30
0.0
 10
100.608817
 20
187.631847
 30
0.0
 10
101.224160
 20
183.689925
 30
0.0
 10
101.536463
 20
181.689294
 30
0.0
 11
101.536463
 21
181.689294
 31
0.0
 11
99.986896
 21
175.960883
 31
0.0
 11
95.915173
 21
171.889160
 31
0.0
 11
90.186761
 21
170.339592
 31
0.0
 11
87.241249
 21
170.728439
 31
0.0
 11
84.519056
 21
171.856008
 31
0.0
 11
82.161308
 21
173.663843
 31
0.0
 11
80.353473
 21
176.021590
 31
0.0
 11
79.225903
 21
178.743783
 31
0.0
 11
78.837056
 21
181.689294
 31
0.0
 11
79.225903
 21
184.634807
 31
0.0
 11
80.353472
 21
187.357000
 31
0.0
 11
82.161307
 21
189.714748
 31
0.0
 11
84.519055
 21
191.522584
 31
0.0
 11
87.241249
 21
192.650153
 31
0.0
 11
90.186761
 21
193.038999
 31
0.0
 11
95.915174
 21
191.489431
 31
0.0
 11
99.986897
 21
187.417707
 31
0.0
 11
101.536463
 21
181.689294
 31
0.0
  0
LWPOLYLINE
  5
107
100
AcDbEntity
  8
Layer_1
 62
7
100
AcDbPolyline
 90
2
 70
1
 10
101.536463
 20
181.689294
 30
0.0
 10
101.536463
 20
181.689294
 30
0.0
  0
SPLINE
  5
108
100
AcDbEntity
  8
Layer_1
 62
7
100
AcDbSpline
 70
0
 71
3
 72
10
 73
6
 74
4
 40
0.000000
 40
0.000000
 40
0.000000
 40
0.000000
 40
2.013011
 40
3.963395
 40
5.976407
 40
5.976407
 40
5.976407
 40
5.976407
 10
49.604414
 20
230.407132
 30
0.0
 10
48.929633
 20
230.301868
 30
0.0
 10
47.601065
 20
230.094613
 30
0.0
 10
46.070001
 20
228.563549
 30
0.0
 10
45.862747
 20
227.234981
 30
0.0
 10
45.757482
 20
226.560201
 30
0.0
 11
49.604414
 21
230.407132
 31
0.0
 11
47.660868
 21
229.882876
 31
0.0
 11
46.281738
 21
228.503747
 31
0.0
 11
45.757482
 21
226.560201
 31
0.0
  0
LWPOLYLINE
  5
109
100
AcDbEntity
  8
Layer_1
 62
7
100
AcDbPolyline
 90
2
 70
1
 10
45.757482
 20
226.560201
 30
0.0
 10
45.757482
 20
114.395607
 30
0.0
  0
SPLINE
  5
10a
100
AcDbEntity
  8
Layer_1
 62
7
100
AcDbSpline
 70
0
 71
3
 72
10
 73
6
 74
4
 40
0.000000
 40
0.000000
 40
0.000000
 40
0.000000
 40
2.013011
 40
3.963395
 40
5.976407
 40
5.976407
 40
5.976407
 40
5.976407
 10
45.757482
 20
114.395607
 30
0.0
 10
45.862747
 20
113.720826
 30
0.0
 10
46.070001
 20
112.392259
 30
0.0
 10
47.601065
 20
110.861195
 30
0.0
 10
48.929633
 20
110.653940
 30
0.0
 10
49.604414
 20
110.548675
 30
0.0
 11
45.757482
 21
114.395607
 31
0.0
 11
46.281738
 21
112.452061
 31
0.0
 11
47.660868
 21
111.072931
 31
0.0
 11
49.604414
 21
110.548675
 31
0.0
  0
LWPOLYLINE
  5
10b
100
AcDbEntity
  8
Layer_1
 62
7
100
AcDbPolyline
 90
2
 70
1
 10
49.604414
 20
110.548675
 30
0.0
 10
130.768660
 20
110.548675
 30
0.0
  0
SPLINE
  5
10c
100
AcDbEntity
  8
Layer_1
 62
7
100
AcDbSpline
 70
0
 71
3
 72
10
 73
6
 74
4
 40
0.000000
 40
0.000000
 40
0.000000
 40
0.000000
 40
2.013149
 40
3.963720
 40
5.976769
 40
5.976769
 40
5.976769
 40
5.976769
 10
130.768660
 20
110.548675
 30
0.0
 10
131.443477
 20
110.653948
 30
0.0
 10
132.772136
 20
110.861220
 30
0.0
 10
134.303479
 20
112.392176
 30
0.0
 10
134.510832
 20
113.720816
 30
0.0
 10
134.616142
 20
114.395607
 30
0.0
 11
130.768660
 21
110.548675
 31
0.0
 11
132.712349
 21
111.072931
 31
0.0
 11
134.091743
 21
112.452061
 31
0.0
 11
134.616142
 21
114.395607
 31
0.0
  0
LWPOLYLINE
  5
10d
100
AcDbEntity
  8
Layer_1
 62
7
100
AcDbPolyline
 90
2
 70
1
 10
134.616142
 20
114.395607
 30
0.0
 10
134.616142
 20
226.560201
 30
0.0
  0
LWPOLYLINE
  5
10e
100
AcDbEntity
  8
Layer_1
 62
7
100
AcDbPolyline
 90
3
 70
1
 10
130.768660
 20
230.407132
 30
0.0
 10
49.604414
 20
230.407132
 30
0.0
 10
49.604414
 20
230.407132
 30
0.0
  0
SPLINE
  5
10f
100
AcDbEntity
  8
Layer_1
 62
7
100
AcDbSpline
 70
0
 71
3
 72
10
 73
6
 74
4
 40
0.000000
 40
0.000000
 40
0.000000
 40
0.000000
 40
2.013049
 40
3.963620
 40
5.976769
 40
5.976769
 40
5.976769
 40
5.976769
 10
134.616142
 20
226.560201
 30
0.0
 10
134.510832
 20
227.234992
 30
0.0
 10
134.303479
 20
228.563631
 30
0.0
 10
132.772136
 20
230.094587
 30
0.0
 10
131.443477
 20
230.301860
 30
0.0
 10
130.768660
 20
230.407132
 30
0.0
 11
134.616142
 21
226.560201
 31
0.0
 11
134.091743
 21
228.503747
 31
0.0
 11
132.712349
 21
229.882876
 31
0.0
 11
130.768660
 21
230.407132
 31
0.0
  0
LWPOLYLINE
  5
110
100
AcDbEntity
  8
Layer_1
 62
7
100
AcDbPolyline
 90
2
 70
1
 10
49.604414
 20
230.124910
 30
0.0
 10
130.768660
 20
230.124910
 30
0.0
  0
SPLINE
  5
111
100
AcDbEntity
  8
Layer_1
 62
7
100
AcDbSpline
 70
0
 71
3
 72
10
 73
6
 74
4
 40
0.000000
 40
0.000000
 40
0.000000
 40
0.000000
 40
1.867219
 40
3.673223
 40
5.540342
 40
5.540342
 40
5.540342
 40
5.540342
 10
130.768660
 20
230.124910
 30
0.0
 10
131.394734
 20
230.027954
 30
0.0
 10
132.626356
 20
229.837221
 30
0.0
 10
134.046113
 20
228.417851
 30
0.0
 10
134.236926
 20
227.186248
 30
0.0
 10
134.333920
 20
226.560201
 30
0.0
 11
130.768660
 21
230.124910
 31
0.0
 11
132.571859
 21
229.640162
 31
0.0
 11
133.849030
 21
228.363257
 31
0.0
 11
134.333920
 21
226.560201
 31
0.0
  0
LWPOLYLINE
  5
112
100
AcDbEntity
  8
Layer_1
 62
7
100
AcDbPolyline
 90
2
 70
1
 10
134.333920
 20
226.560201
 30
0.0
 10
134.333920
 20
114.395607
 30
0.0
  0
SPLINE
  5
113
100
AcDbEntity
  8
Layer_1
 62
7
100
AcDbSpline
 70
0
 71
3
 72
10
 73
6
 74
4
 40
0.000000
 40
0.000000
 40
0.000000
 40
0.000000
 40
1.867120
 40
3.673123
 40
5.540342
 40
5.540342
 40
5.540342
 40
5.540342
 10
134.333920
 20
114.395607
 30
0.0
 10
134.236926
 20
113.769559
 30
0.0
 10
134.046113
 20
112.537955
 30
0.0
 10
132.626355
 20
111.118586
 30
0.0
 10
131.394734
 20
110.927853
 30
0.0
 10
130.768660
 20
110.830898
 30
0.0
 11
134.333920
 21
114.395607
 31
0.0
 11
133.849030
 21
112.592549
 31
0.0
 11
132.571859
 21
111.315645
 31
0.0
 11
130.768660
 21
110.830898
 31
0.0
  0
LWPOLYLINE
  5
114
100
AcDbEntity
  8
Layer_1
 62
7
100
AcDbPolyline
 90
2
 70
1
 10
130.768660
 20
110.830898
 30
0.0
 10
49.604414
 20
110.830898
 30
0.0
  0
SPLINE
  5
115
100
AcDbEntity
  8
Layer_1
 62
7
100
AcDbSpline
 70
0
 71
3
 72
10
 73
6
 74
4
 40
0.000000
 40
0.000000
 40
0.000000
 40
0.000000
 40
1.867082
 40
3.672898
 40
5.539981
 40
5.539981
 40
5.539981
 40
5.539981
 10
49.604414
 20
110.830898
 30
0.0
 10
48.978376
 20
110.927845
 30
0.0
 10
47.746845
 20
111.118560
 30
0.0
 10
46.327366
 20
112.538038
 30
0.0
 10
46.136652
 20
113.769570
 30
0.0
 10
46.039704
 20
114.395607
 30
0.0
 11
49.604414
 21
110.830898
 31
0.0
 11
47.801356
 21
111.315645
 31
0.0
 11
46.524451
 21
112.592549
 31
0.0
 11
46.039704
 21
114.395607
 31
0.0
  0
LWPOLYLINE
  5
116
100
AcDbEntity
  8
Layer_1
 62
7
100
AcDbPolyline
 90
2
 70
1
 10
46.039704
 20
114.395607
 30
0.0
 10
46.039704
 20
226.560201
 30
0.0
  0
SPLINE
  5
117
100
AcDbEntity
  8
Layer_1
 62
7
100
AcDbSpline
 70
0
 71
3
 72
10
 73
6
 74
4
 40
0.000000
 40
0.000000
 40
0.000000
 40
0.000000
 40
1.867082
 40
3.672898
 40
5.539981
 40
5.539981
 40
5.539981
 40
5.539981
 10
46.039704
 20
226.560201
 30
0.0
 10
46.136652
 20
227.186238
 30
0.0
 10
46.327366
 20
228.417770
 30
0.0
 10
47.746845
 20
229.837248
 30
0.0
 10
48.978376
 20
230.027962
 30
0.0
 10
49.604414
 20
230.124910
 30
0.0
 11
46.039704
 21
226.560201
 31
0.0
 11
46.524451
 21
228.363258
 31
0.0
 11
47.801356
 21
229.640163
 31
0.0
 11
49.604414
 21
230.124910
 31
0.0
  0
LWPOLYLINE
  5
118
100
AcDbEntity
  8
Layer_1
 62
7
100
AcDbPolyline
 90
2
 70
1
 10
49.604414
 20
230.124910
 30
0.0
 10
49.604414
 20
230.124910
 30
0.0
  0
ENDSEC
  0
SECTION
  2
OBJECTS
  0
DICTIONARY
  5
C
330
0
100
AcDbDictionary
  3
ACAD_GROUP
350
D
  3
ACAD_MLINESTYLE
350
17
  0
DICTIONARY
  5
D
330
C
100
AcDbDictionary
  0
DICTIONARY
  5
1A
330
C
100
AcDbDictionary
  0
DICTIONARY
  5
17
330
C
100
AcDbDictionary
  3
STANDARD
350
18
  0
DICTIONARY
  5
19
330
C
100
AcDbDictionary
  0
ENDSEC
  0
EOF
