<?xml version="1.0" encoding="UTF-8" standalone="no"?>
<!-- Created with Inkscape (http://www.inkscape.org/) -->

<svg
   xmlns:dc="http://purl.org/dc/elements/1.1/"
   xmlns:cc="http://creativecommons.org/ns#"
   xmlns:rdf="http://www.w3.org/1999/02/22-rdf-syntax-ns#"
   xmlns:svg="http://www.w3.org/2000/svg"
   xmlns="http://www.w3.org/2000/svg"
   xmlns:sodipodi="http://sodipodi.sourceforge.net/DTD/sodipodi-0.dtd"
   xmlns:inkscape="http://www.inkscape.org/namespaces/inkscape"
   width="210mm"
   height="297mm"
   viewBox="0 0 744.09448819 1052.3622047"
   id="svg2"
   version="1.1"
   inkscape:version="0.91 r13725"
   sodipodi:docname="tentacle_motor_mount.svg">
  <sodipodi:namedview
     id="base"
     pagecolor="#ffffff"
     bordercolor="#666666"
     borderopacity="1.0"
     inkscape:pageopacity="0.0"
     inkscape:pageshadow="2"
     inkscape:zoom="0.98994949"
     inkscape:cx="232.3584"
     inkscape:cy="511.50453"
     inkscape:document-units="mm"
     inkscape:current-layer="layer1"
     showgrid="false"
     inkscape:snap-bbox="true"
     inkscape:snap-nodes="true"
     inkscape:object-nodes="true"
     inkscape:window-width="1680"
     inkscape:window-height="1026"
     inkscape:window-x="1440"
     inkscape:window-y="1024"
     inkscape:window-maximized="1"
     inkscape:snap-bbox-midpoints="true"
     inkscape:snap-global="true"
     inkscape:snap-to-guides="false"
     inkscape:snap-grids="false"
     inkscape:snap-others="false"
     inkscape:snap-intersection-paths="true"
     inkscape:snap-bbox-edge-midpoints="true"
     inkscape:bbox-nodes="true"
     inkscape:snap-midpoints="false" />
  <defs
     id="defs4" />
  <metadata
     id="metadata7">
    <rdf:RDF>
      <cc:Work
         rdf:about="">
        <dc:format>image/svg+xml</dc:format>
        <dc:type
           rdf:resource="http://purl.org/dc/dcmitype/StillImage" />
        <dc:title></dc:title>
      </cc:Work>
    </rdf:RDF>
  </metadata>
  <g
     id="layer1"
     inkscape:groupmode="layer"
     inkscape:label="Layer 1">
    <g
       id="g4256"
       style="stroke-width:1;stroke-miterlimit:4;stroke-dasharray:none">
      <path
         style="fill:none;fill-opacity:1;stroke:#000000;stroke-width:1;stroke-miterlimit:4;stroke-dasharray:none;stroke-dashoffset:0.69999999"
         d="m 329.40924,299.20624 a 9.8498526,9.8498526 0 0 1 -9.84985,9.84985 9.8498526,9.8498526 0 0 1 -9.84986,-9.84985 9.8498526,9.8498526 0 0 1 9.84986,-9.84985 9.8498526,9.8498526 0 0 1 9.84985,9.84985 z"
         id="path4174" />
      <path
         style="fill:none;fill-opacity:1;stroke:#000000;stroke-width:1;stroke-miterlimit:4;stroke-dasharray:none;stroke-dashoffset:0.69999999"
         d="m 424.3819,463.7037 a 9.8498526,9.8498526 0 0 1 -9.84986,9.84986 9.8498526,9.8498526 0 0 1 -9.84985,-9.84986 9.8498526,9.8498526 0 0 1 9.84985,-9.84985 9.8498526,9.8498526 0 0 1 9.84986,9.84985 z"
         id="path4174-7" />
      <path
         style="fill:none;fill-opacity:1;stroke:#000000;stroke-width:1;stroke-miterlimit:4;stroke-dasharray:none;stroke-dashoffset:0.69999999"
         d="m 234.43657,463.7037 a 9.8498526,9.8498526 0 0 1 -9.84985,9.84986 9.8498526,9.8498526 0 0 1 -9.84986,-9.84986 9.8498526,9.8498526 0 0 1 9.84986,-9.84985 9.8498526,9.8498526 0 0 1 9.84985,9.84985 z"
         id="path4174-5" />
      <path
         style="fill:none;fill-opacity:1;stroke:#000000;stroke-width:1;stroke-miterlimit:4;stroke-dasharray:none;stroke-dashoffset:0.69999999"
         d="m 359.77487,408.58124 a 40.215485,40.215485 0 0 1 -40.21548,40.21548 40.215485,40.215485 0 0 1 -40.21549,-40.21548 40.215485,40.215485 0 0 1 40.21549,-40.21549 40.215485,40.215485 0 0 1 40.21548,40.21549 z"
         id="path4174-3" />
    </g>
    <path
       style="color:#000000;font-style:normal;font-variant:normal;font-weight:normal;font-stretch:normal;font-size:medium;line-height:normal;font-family:sans-serif;text-indent:0;text-align:start;text-decoration:none;text-decoration-line:none;text-decoration-style:solid;text-decoration-color:#000000;letter-spacing:normal;word-spacing:normal;text-transform:none;direction:ltr;block-progression:tb;writing-mode:lr-tb;baseline-shift:baseline;text-anchor:start;white-space:normal;clip-rule:nonzero;display:inline;overflow:visible;visibility:visible;opacity:1;isolation:auto;mix-blend-mode:normal;color-interpolation:sRGB;color-interpolation-filters:linearRGB;solid-color:#000000;solid-opacity:1;fill:#000000;fill-opacity:1;fill-rule:nonzero;stroke:none;stroke-width:1;stroke-linecap:butt;stroke-linejoin:miter;stroke-miterlimit:4;stroke-dasharray:none;stroke-dashoffset:0.69999999;stroke-opacity:1;color-rendering:auto;image-rendering:auto;shape-rendering:auto;text-rendering:auto;enable-background:accumulate"
       d="m 175.76367,235.95898 c -7.54347,0 -13.63086,6.08739 -13.63086,13.63086 l 0,397.4336 c 0,7.54347 6.08739,13.63086 13.63086,13.63086 l 287.58985,0 c 7.54347,0 13.63281,-6.08739 13.63281,-13.63086 l 0,-397.4336 c 0,-7.54347 -6.08934,-13.63086 -13.63281,-13.63086 l -287.58985,0 z m 0,1 287.58985,0 c 7.00676,0 12.63281,5.6241 12.63281,12.63086 l 0,397.4336 c 0,7.00677 -5.62605,12.63086 -12.63281,12.63086 l -287.58985,0 c -7.00677,0 -12.63086,-5.62409 -12.63086,-12.63086 l 0,-397.4336 c 0,-7.00677 5.62409,-12.63086 12.63086,-12.63086 z"
       id="rect4262"
       inkscape:connector-curvature="0" />
  </g>
</svg>
